<svg width="13" height="12" viewBox="0 0 13 12" fill="none" xmlns="http://www.w3.org/2000/svg">
<path fill-rule="evenodd" clip-rule="evenodd" d="M2.85411 3.90314H0.159348V11.9998H2.85411V3.90314Z" fill="white"/>
<path fill-rule="evenodd" clip-rule="evenodd" d="M3.03159 1.39853C3.0141 0.604659 2.4464 0 1.52454 0C0.602681 0 0 0.604659 0 1.39853C0 2.17596 0.584868 2.79803 1.48956 2.79803H1.50678C2.4464 2.79803 3.03159 2.17596 3.03159 1.39853Z" fill="white"/>
<path fill-rule="evenodd" clip-rule="evenodd" d="M12.5725 7.35741C12.5725 4.87047 11.2431 3.71301 9.46978 3.71301C8.03904 3.71301 7.39848 4.49888 7.04082 5.05017V3.90335H4.34573C4.38125 4.6631 4.34573 12 4.34573 12H7.04082V7.47816C7.04082 7.23618 7.05831 6.99479 7.12956 6.82154C7.32432 6.33811 7.76776 5.83759 8.51224 5.83759C9.48776 5.83759 9.87771 6.58004 9.87771 7.66807V11.9998H12.5724L12.5725 7.35741Z" fill="white"/>
</svg>
