<svg width="12" height="12" viewBox="0 0 12 12" fill="none" xmlns="http://www.w3.org/2000/svg">
<path d="M10 0H2C0.916667 0 0 0.916667 0 2V10C0 11.0833 0.916667 12 2 12H10C11.0833 12 12 11.0833 12 10V2C12 0.916667 11.0833 0 10 0ZM11 10C11 10.5833 10.5833 11 10 11H2C1.41667 11 1 10.5833 1 10V2C1 1.41667 1.41667 1 2 1H10C10.5833 1 11 1.41667 11 2V10Z" fill="white"/>
<path d="M6 3C4.33333 3 3 4.33333 3 6C3 7.66667 4.33333 9 6 9C7.66667 9 9 7.66667 9 6C9 4.33333 7.66667 3 6 3ZM6 8C4.91667 8 4 7.08333 4 6C4 4.91667 4.91667 4 6 4C7.08333 4 8 4.91667 8 6C8 7.08333 7.08333 8 6 8Z" fill="white"/>
<path d="M9.25 3.5C9.66421 3.5 10 3.16421 10 2.75C10 2.33579 9.66421 2 9.25 2C8.83579 2 8.5 2.33579 8.5 2.75C8.5 3.16421 8.83579 3.5 9.25 3.5Z" fill="white"/>
</svg>
